# xmcd CD database file
# Copyright (C) 1993-1998 Ti Kan
#
# Track frame offsets:
#	150
#	12740
#	29047
#	43247
#
# Disc length: 786 seconds
#
# Revision: 0
# Processed by: cddbd v1.4b41PL1 Copyright (c) Steve Scherf et al.
# Submitted via: CDmax 1.5
#
DISCID=36031004
DTITLE=The Blues Brothers Band - Australian Tour Sampler - April 1993
DYEAR=1900
DGENRE=
TTITLE0=Shake Your Tail Feather
TTITLE1=Boogie Thing
TTITLE2=Soul Man
TTITLE3=You Got The Bucks
EXTD=
EXTT0=
EXTT1=
EXTT2=
EXTT3=
PLAYORDER=
